<svg width="167" height="56" viewBox="0 0 167 56" fill="none" xmlns="http://www.w3.org/2000/svg">
<g clip-path="url(#clip0_137_60)">
<path d="M0 56V8.08648H8.28589L8.35489 18.1832L9.60841 18.2517C9.92424 16.0784 10.6687 13.9883 11.7992 12.1012C12.7772 10.5021 14.1878 9.208 15.8703 8.36631C17.6635 7.51319 19.6323 7.08693 21.6204 7.12135C24.587 7.03855 27.5064 7.87265 29.9752 9.50846C32.3645 11.186 34.2138 13.5145 35.2998 16.2129C36.5982 19.4552 37.226 22.924 37.1456 26.4124C37.202 29.7238 36.6345 33.0165 35.4723 36.1207C34.484 38.786 32.7603 41.1213 30.4985 42.8595C28.2905 44.5194 25.54 45.3494 22.2471 45.3494C20.206 45.4126 18.1822 44.9607 16.3648 44.0359C14.7527 43.1496 13.389 41.8776 12.3972 40.3353C11.2656 38.5606 10.387 36.6388 9.78666 34.6245H8.46414C8.74014 35.8695 8.9989 37.1373 9.2289 38.4279C9.45891 39.7185 9.64866 40.9749 9.80391 42.197C9.93966 43.3801 10.0088 44.5698 10.0109 45.7606V56H0ZM18.7971 37.4057C20.3314 37.4499 21.8329 36.9589 23.0406 36.0179C24.2726 34.9964 25.1993 33.6593 25.7202 32.1517C26.3747 30.333 26.6942 28.4121 26.6632 26.4809C26.7141 24.4635 26.3825 22.4545 25.6857 20.5588C25.1316 19.0494 24.1685 17.7214 22.9026 16.7212C21.6629 15.787 20.14 15.2996 18.5843 15.3392C17.2441 15.301 15.9197 15.6352 14.7605 16.3043C13.6874 16.9562 12.7709 17.8333 12.0752 18.8742C11.3633 19.9207 10.8345 21.0792 10.5112 22.3006C10.1986 23.4401 10.0344 24.6147 10.0224 25.7956V27.1091C10.0201 28.027 10.1302 28.9417 10.3502 29.8332C10.6017 30.8033 10.9888 31.7337 11.5002 32.5972C11.9928 33.4793 12.5998 34.2933 13.3057 35.0186C14.0091 35.7294 14.8348 36.3096 15.7438 36.7318C16.6984 37.1792 17.7415 37.4094 18.7971 37.4057Z" fill="black"/>
<path d="M44.4137 44.3843V8.08648H52.6249L52.5559 18.937H53.9474C54.4298 16.62 55.3006 14.4 56.5234 12.3696C57.5461 10.7036 59.0021 9.34235 60.7382 8.42913C62.6084 7.51383 64.6743 7.06309 66.7586 7.11564C70.9753 7.11564 74.1896 8.59093 76.4015 11.5415C78.6134 14.4921 79.7155 19.1235 79.7078 25.4359V44.3843H69.6106V26.5495C69.6106 22.6775 69.0356 19.8545 67.8856 18.0804C67.3744 17.2372 66.6449 16.5457 65.7732 16.0776C64.9014 15.6096 63.9193 15.3822 62.929 15.4191C61.2095 15.3666 59.5369 15.981 58.2657 17.1324C56.9491 18.3913 55.9791 19.9641 55.4482 21.701C54.7927 23.732 54.4514 25.8501 54.4361 27.9829V44.3843H44.4137Z" fill="black"/>
<path d="M105.255 45.3551C102.431 45.411 99.6208 44.9423 96.9696 43.9731C94.7323 43.1348 92.7111 41.8122 91.0528 40.1012C89.4566 38.4067 88.2466 36.3908 87.5049 34.1905C86.6918 31.7722 86.2915 29.2359 86.3204 26.6865C86.289 24.024 86.7009 21.3747 87.5395 18.8456C88.2978 16.5619 89.5167 14.4556 91.1218 12.6551C92.7377 10.874 94.7363 9.47651 96.9696 8.56618C99.491 7.56285 102.189 7.06969 104.905 7.11564C107.566 7.05674 110.21 7.55081 112.667 8.56618C114.762 9.45404 116.603 10.8431 118.026 12.6094C119.427 14.4084 120.393 16.5029 120.85 18.7314L111.586 21.701C111.488 20.3992 111.095 19.1362 110.436 18.0061C109.843 17.0009 108.973 16.1846 107.929 15.6533C106.84 15.1095 105.635 14.8334 104.416 14.8481C103.239 14.7972 102.07 15.055 101.025 15.5953C99.9804 16.1356 99.0974 16.9395 98.4646 17.9262C97.7463 19.025 97.2286 20.241 96.9351 21.5183C96.5717 23.07 96.396 24.6594 96.4118 26.2525C96.3563 28.4054 96.6993 30.5502 97.4239 32.58C97.9869 34.1687 99.0315 35.5452 100.414 36.5205C101.873 37.4596 103.587 37.9301 105.324 37.8682C106.882 37.9445 108.429 37.5737 109.781 36.8003C110.853 36.1308 111.709 35.1694 112.248 34.0306C112.78 32.937 113.128 31.764 113.277 30.5584L122.046 32.4944C121.829 34.247 121.324 35.9525 120.551 37.5427C119.775 39.1175 118.667 40.5081 117.302 41.6202C115.803 42.8311 114.091 43.7566 112.253 44.35C109.992 45.0628 107.628 45.4024 105.255 45.3551Z" fill="black"/>
<path d="M141.314 45.218C137.232 45.218 134.226 44.1463 132.298 42.0029C130.37 39.8594 129.412 36.4329 129.423 31.7234V15.9045H124.133L124.271 8.08648H127.957C129.06 8.15732 130.163 7.94491 131.16 7.46971C131.534 7.21279 131.842 6.8723 132.06 6.47558C132.278 6.07886 132.399 5.63697 132.413 5.1854L133.31 0H139.014V8.08648H148.272V16.1787H139.014V31.318C139.014 32.9779 139.409 34.1772 140.199 34.9158C140.989 35.6544 142.196 36.0218 143.821 36.0179C144.676 36.0207 145.529 35.9287 146.363 35.7438C147.122 35.578 147.842 35.2698 148.485 34.8358V44.1101C147.195 44.5387 145.866 44.839 144.517 45.0067C143.455 45.1392 142.385 45.2098 141.314 45.218Z" fill="black"/>
<path d="M161.29 43.2478L159.973 42.7852C159.22 44.1216 158.409 44.7041 157.507 44.7041C156.751 44.6363 156.038 44.3255 155.477 43.8189C154.392 42.8975 153.848 41.4698 153.844 39.5358C153.84 37.6017 154.384 36.1493 155.477 35.1785C156.569 34.259 158.202 33.7964 160.387 33.7964C162.572 33.7964 164.274 34.259 165.361 35.1785C166.448 36.0979 166.988 37.5541 167 39.5358C166.996 40.1442 166.93 40.7506 166.804 41.3461C166.501 43.2799 166 45.1781 165.309 47.0112C164.778 48.3624 164.138 49.6687 163.395 50.9174H155.667L161.29 43.2478Z" fill="black"/>
</g>
<defs>
<clipPath id="clip0_137_60">
<rect width="167" height="56" fill="white"/>
</clipPath>
</defs>
</svg>
