<svg width="504" height="169" viewBox="0 0 504 169" fill="none" xmlns="http://www.w3.org/2000/svg">
<g clip-path="url(#clip0_502_303)">
<path d="M0 169V24.4037H25.0065L25.2148 54.874L28.9978 55.0808C29.951 48.522 32.1978 42.2145 35.6095 36.5194C38.5612 31.6937 42.8183 27.7883 47.8959 25.2482C53.3078 22.6736 59.2495 21.3872 65.2495 21.4911C74.2028 21.2412 83.0133 23.7584 90.4642 28.695C97.6748 33.7576 103.256 40.7848 106.534 48.9282C110.452 58.7129 112.347 69.1812 112.104 79.7087C112.274 89.7021 110.562 99.6389 107.054 109.007C104.071 117.051 98.8695 124.098 92.0434 129.344C85.3796 134.353 77.0788 136.858 67.141 136.858C60.9811 137.049 54.8732 135.685 49.3883 132.894C44.5232 130.219 40.4075 126.38 37.4143 121.726C33.999 116.37 31.3476 110.57 29.5358 104.492H25.5445C26.3774 108.249 27.1583 112.075 27.8525 115.97C28.5466 119.865 29.1193 123.656 29.5879 127.344C29.9975 130.915 30.2061 134.505 30.2126 138.099V169H0ZM56.7288 112.885C61.3595 113.018 65.8909 111.537 69.5358 108.697C73.2538 105.614 76.0505 101.579 77.6226 97.0292C79.598 91.5406 80.562 85.7435 80.4685 79.9155C80.6222 73.8272 79.6214 67.7644 77.5184 62.0435C75.8464 57.4883 72.9398 53.4804 69.1193 50.462C65.3778 47.6428 60.7817 46.1719 56.0868 46.2913C52.042 46.176 48.0452 47.1847 44.5466 49.2039C41.3081 51.1712 38.5421 53.8182 36.4425 56.9594C34.2941 60.1177 32.6983 63.6138 31.7223 67.3C30.7791 70.7388 30.2834 74.2834 30.2473 77.8474V81.8113C30.2403 84.5812 30.5725 87.3418 31.2364 90.0321C31.9956 92.9598 33.1639 95.7676 34.7072 98.3735C36.1938 101.036 38.0258 103.492 40.1562 105.681C42.2789 107.826 44.7708 109.577 47.5141 110.851C50.3951 112.201 53.5432 112.896 56.7288 112.885Z" fill="black"/>
<path d="M134.039 133.945V24.4037H158.82L158.612 57.149H162.811C164.267 50.1568 166.895 43.4571 170.586 37.3295C173.672 32.3018 178.066 28.1937 183.306 25.4378C188.95 22.6755 195.185 21.3153 201.475 21.4739C214.201 21.4739 223.902 25.9261 230.577 34.8305C237.252 43.7349 240.578 57.7119 240.555 76.7616V133.945H210.082V80.1223C210.082 68.4375 208.347 59.9179 204.876 54.5638C203.333 52.0194 201.132 49.9323 198.501 48.5198C195.87 47.1073 192.906 46.4211 189.918 46.5326C184.728 46.3739 179.68 48.2284 175.844 51.7029C171.87 55.5022 168.943 60.2488 167.341 65.4904C165.362 71.6197 164.333 78.0118 164.286 84.4482V133.945H134.039Z" fill="black"/>
<path d="M317.657 136.875C309.133 137.044 300.652 135.63 292.651 132.705C285.899 130.175 279.799 126.183 274.794 121.02C269.977 115.906 266.325 109.822 264.087 103.182C261.633 95.8841 260.425 88.23 260.512 80.5363C260.417 72.5013 261.66 64.5059 264.191 56.8735C266.48 49.9816 270.158 43.625 275.002 38.1915C279.879 32.8162 285.911 28.5989 292.651 25.8517C300.26 22.8238 308.402 21.3355 316.599 21.4742C324.63 21.2964 332.609 22.7875 340.026 25.8517C346.349 28.5311 351.905 32.7231 356.2 38.0536C360.427 43.4827 363.342 49.8037 364.72 56.5288L336.764 65.4907C336.466 61.5619 335.279 57.7505 333.293 54.3401C331.503 51.3064 328.878 48.8431 325.727 47.2395C322.439 45.5986 318.803 44.7653 315.124 44.8095C311.572 44.6562 308.043 45.4339 304.89 47.0645C301.737 48.6951 299.072 51.1211 297.163 54.0988C294.995 57.415 293.432 61.0845 292.547 64.9392C291.45 69.6223 290.92 74.4186 290.967 79.2265C290.8 85.7237 291.835 92.1963 294.022 98.3221C295.721 103.116 298.873 107.27 303.046 110.214C307.448 113.048 312.622 114.468 317.866 114.281C322.567 114.511 327.236 113.392 331.315 111.058C334.551 109.038 337.135 106.137 338.759 102.7C340.366 99.3994 341.415 95.8594 341.866 92.2212L368.33 98.0636C367.675 103.353 366.151 108.5 363.818 113.299C361.476 118.051 358.132 122.248 354.013 125.604C349.488 129.258 344.323 132.051 338.777 133.842C331.951 135.993 324.817 137.018 317.657 136.875Z" fill="black"/>
<path d="M426.482 136.462C414.161 136.462 405.09 133.227 399.271 126.759C393.452 120.29 390.56 109.949 390.594 95.7368V47.9977H374.629L375.046 24.4038H386.169C389.499 24.6176 392.827 23.9766 395.835 22.5425C396.964 21.7672 397.895 20.7396 398.552 19.5424C399.209 18.3451 399.574 17.0116 399.618 15.6488L402.325 0H419.54V24.4038H447.479V48.8249H419.54V94.5132C419.54 99.5226 420.732 103.142 423.115 105.371C425.498 107.6 429.142 108.709 434.048 108.697C436.627 108.705 439.2 108.428 441.718 107.87C444.009 107.369 446.182 106.439 448.121 105.13V133.118C444.23 134.411 440.219 135.318 436.148 135.824C432.941 136.224 429.713 136.437 426.482 136.462Z" fill="black"/>
<path d="M486.768 130.516L482.794 129.12C480.521 133.152 478.074 134.91 475.349 134.91C473.069 134.706 470.918 133.768 469.223 132.239C465.949 129.458 464.307 125.15 464.295 119.313C464.283 113.476 465.926 109.093 469.223 106.163C472.521 103.389 477.449 101.993 484.043 101.993C490.638 101.993 495.774 103.389 499.054 106.163C502.334 108.938 503.965 113.333 504 119.313C503.987 121.149 503.789 122.979 503.41 124.776C502.493 130.612 500.982 136.341 498.898 141.873C497.295 145.951 495.362 149.893 493.119 153.661H469.796L486.768 130.516Z" fill="black"/>
</g>
<defs>
<clipPath id="clip0_502_303">
<rect width="504" height="169" fill="white"/>
</clipPath>
</defs>
</svg>
