<?xml version="1.0" encoding="utf-8"?>
<!-- Generator: Adobe Illustrator 24.0.3, SVG Export Plug-In . SVG Version: 6.00 Build 0)  -->
<svg version="1.1" id="Calque_1" xmlns="http://www.w3.org/2000/svg" xmlns:xlink="http://www.w3.org/1999/xlink" x="0px" y="0px"
	 viewBox="0 0 167 56" style="enable-background:new 0 0 167 56;" xml:space="preserve">
<style type="text/css">
	.st0{fill:#020203;}
</style>
<path class="st0" d="M0,44.9V27.2V15.9h5.5l0.1,6.2l0.7,0.1c0.2-1.6,0.7-2.8,1.3-3.9c0.6-1,1.5-1.8,2.5-2.3c1-0.5,2.2-0.7,3.5-0.7
	c1.9,0,3.6,0.5,5,1.4c1.4,0.9,2.5,2.3,3.2,4c0.7,1.7,1.1,3.8,1.1,6.3c0,2.2-0.3,4.1-1,5.8c-0.6,1.7-1.6,3.1-3,4.1
	c-1.3,1-3,1.5-5,1.5c-1.4,0-2.5-0.2-3.5-0.7c-0.9-0.5-1.7-1.2-2.4-2.2c-0.6-0.9-1.2-2.1-1.6-3.5H5.7c0.2,0.7,0.3,1.5,0.5,2.3
	c0.1,0.8,0.2,1.5,0.3,2.2c0.1,0.7,0.2,1.4,0.2,2.1v6.2H0z M11.6,33.2c0.9,0,1.7-0.2,2.3-0.7c0.7-0.5,1.2-1.2,1.5-2.1
	c0.4-0.9,0.5-2,0.5-3.2c0-1.3-0.2-2.4-0.6-3.3c-0.4-0.9-0.9-1.7-1.6-2.2c-0.7-0.5-1.5-0.8-2.4-0.8c-0.9,0-1.6,0.2-2.2,0.6
	c-0.6,0.4-1.1,0.8-1.5,1.5c-0.4,0.6-0.6,1.2-0.8,1.9c-0.2,0.7-0.2,1.3-0.2,1.9v0.9c0,0.5,0.1,1.1,0.2,1.6c0.1,0.5,0.3,1,0.6,1.5
	c0.3,0.5,0.6,0.9,1,1.3c0.4,0.4,0.8,0.7,1.3,0.9C10.4,33.1,11,33.2,11.6,33.2z M37.3,38.5c-2.2,0-4.2-0.4-5.9-1.3
	c-1.7-0.9-3-2.2-4-3.9c-1-1.7-1.5-3.9-1.5-6.5s0.5-4.7,1.5-6.4c1-1.7,2.3-3,4-3.8c1.7-0.9,3.7-1.3,5.9-1.3c2.2,0,4.2,0.4,5.9,1.3
	c1.7,0.9,3.1,2.2,4,3.9c1,1.7,1.5,3.8,1.5,6.4c0,2.6-0.5,4.8-1.5,6.5c-1,1.7-2.4,3-4.1,3.8C41.4,38.1,39.4,38.5,37.3,38.5z
	 M37.5,33.6c1,0,1.8-0.2,2.5-0.7c0.7-0.5,1.2-1.2,1.5-2.1c0.3-0.9,0.5-2.1,0.5-3.5c0-1.5-0.2-2.7-0.5-3.7c-0.4-1-0.9-1.8-1.6-2.3
	c-0.7-0.6-1.6-0.8-2.7-0.8c-0.9,0-1.8,0.2-2.5,0.7c-0.7,0.4-1.2,1.1-1.5,2.1c-0.3,0.9-0.5,2.1-0.5,3.5c0,2.3,0.4,4,1.2,5.1
	C34.8,33.1,36,33.6,37.5,33.6z M52.6,37.9V24.7v-8.7h5.4l0.1,6.5H59c0.4-1.6,0.9-2.9,1.5-3.9c0.7-1.1,1.5-1.8,2.5-2.3
	c1-0.5,2.2-0.8,3.6-0.8c2.6,0,4.5,0.9,5.9,2.7c1.4,1.8,2,4.7,2,8.6v11.2h-6.7V27.4c0-2.3-0.3-3.9-1-5c-0.6-1.1-1.6-1.6-2.9-1.6
	c-1.1,0-1.9,0.3-2.6,1c-0.7,0.6-1.2,1.5-1.5,2.5s-0.5,2.2-0.5,3.5v10H52.6z M89.8,38.5c-1.9,0-3.6-0.3-5-0.8
	c-1.4-0.5-2.7-1.3-3.6-2.2c-1-1-1.7-2.2-2.2-3.6c-0.5-1.4-0.7-2.9-0.7-4.7c0-1.8,0.2-3.4,0.7-4.8c0.5-1.4,1.3-2.7,2.2-3.7
	c1-1.1,2.2-1.9,3.6-2.4c1.4-0.6,3-0.9,4.9-0.9c1.8,0,3.4,0.3,4.7,0.9s2.4,1.4,3.2,2.5c0.9,1.1,1.4,2.3,1.7,3.7l-6.2,2.1
	c-0.1-0.9-0.3-1.7-0.7-2.2c-0.4-0.6-0.8-1-1.4-1.2c-0.6-0.3-1.2-0.4-1.8-0.4c-0.7,0-1.3,0.1-1.8,0.4c-0.5,0.3-1,0.7-1.3,1.2
	c-0.4,0.6-0.6,1.2-0.8,2c-0.2,0.8-0.3,1.7-0.3,2.7c0,1.5,0.2,2.7,0.5,3.7c0.4,1,0.9,1.7,1.7,2.2c0.7,0.5,1.7,0.7,2.7,0.7
	c1.1,0,1.9-0.2,2.5-0.7c0.6-0.4,1.1-1,1.3-1.6c0.3-0.7,0.4-1.3,0.5-2l5.8,1.3c-0.1,1-0.4,2-0.8,3c-0.4,0.9-1,1.8-1.9,2.5
	c-0.8,0.7-1.9,1.3-3.1,1.7C93,38.3,91.5,38.5,89.8,38.5z M111.8,38.4c-2.6,0-4.5-0.7-5.7-2c-1.2-1.4-1.8-3.6-1.8-6.6v-8.6h-3.1
	l0.1-5.2h2.2c0.9,0,1.6-0.2,2-0.4c0.5-0.2,0.8-0.7,0.9-1.4l0.5-3.1h3.8v4.9h5.3v5.5h-5.3v8.1c0,0.9,0.2,1.6,0.7,2.1
	c0.5,0.4,1.2,0.7,2.1,0.7c0.5,0,1-0.1,1.5-0.2c0.5-0.1,0.9-0.3,1.2-0.5v6.2c-0.9,0.3-1.7,0.4-2.5,0.5
	C112.9,38.4,112.3,38.4,111.8,38.4z M127.6,38.5c-2.6,0-4.6-0.9-5.9-2.6c-1.3-1.8-2-4.5-2-8.1V15.9h6.7v11c0,2.1,0.3,3.6,0.9,4.6
	c0.6,1,1.5,1.5,2.8,1.5c0.7,0,1.4-0.2,1.9-0.5c0.6-0.4,1-0.9,1.4-1.6c0.4-0.7,0.7-1.5,0.8-2.4c0.2-0.9,0.3-1.9,0.3-2.9v-9.7h6.7V29
	v8.9H136l-0.1-6.8H135c-0.4,1.7-0.9,3.1-1.6,4.2c-0.6,1.1-1.4,1.9-2.3,2.4C130.2,38.2,129,38.5,127.6,38.5z M156.9,38.5
	c-1.8,0-3.5-0.2-4.9-0.7c-1.4-0.5-2.7-1.2-3.7-2.2c-1-0.9-1.8-2.1-2.3-3.5c-0.5-1.4-0.8-3-0.8-4.8c0-1.7,0.2-3.4,0.7-4.8
	c0.5-1.5,1.3-2.7,2.2-3.8c1-1.1,2.2-1.9,3.5-2.5c1.4-0.6,3-0.9,4.7-0.9c1.8,0,3.3,0.3,4.7,0.9c1.4,0.6,2.5,1.4,3.3,2.5
	c0.9,1.1,1.5,2.5,2,4.1c0.4,1.6,0.6,3.4,0.4,5.5l-17.2,0.1v-3.5l13.4-0.1l-2.4,1.6c0.2-1.4,0.1-2.5-0.2-3.4
	c-0.4-0.9-0.9-1.5-1.6-1.9c-0.7-0.4-1.4-0.6-2.2-0.6c-1,0-1.8,0.3-2.6,0.8c-0.7,0.5-1.3,1.3-1.7,2.3s-0.6,2.2-0.6,3.7
	c0,2.3,0.5,3.9,1.5,5c1,1,2.3,1.5,3.8,1.5c0.7,0,1.4-0.1,1.9-0.3c0.5-0.2,0.9-0.5,1.2-0.8c0.3-0.3,0.6-0.7,0.7-1.1
	c0.2-0.4,0.3-0.8,0.5-1.1l5.8,1.2c-0.2,1-0.6,2-1.1,2.8c-0.5,0.8-1.1,1.6-2,2.2c-0.8,0.6-1.8,1.1-3,1.4
	C159.9,38.3,158.5,38.5,156.9,38.5z"/>
</svg>
