<svg width="61" height="56" viewBox="0 0 61 56" fill="none" xmlns="http://www.w3.org/2000/svg">
<path d="M30.02 55.4C25.3 55.4 21.07 54.81 17.33 53.65C13.59 52.48 10.43 50.73 7.86 48.39C5.29 46.05 3.34 43.15 2 39.69C0.67 36.23 0 32.23 0 27.7C0 23.17 0.67 19.18 2 15.74C3.33 12.3 5.28 9.42 7.86 7.08C10.43 4.74 13.59 2.98 17.33 1.79C21.07 0.6 25.3 0 30.02 0C34.74 0 38.97 0.6 42.71 1.79C46.45 2.98 49.62 4.75 52.21 7.08C54.8 9.42 56.78 12.3 58.14 15.74C59.5 19.18 60.17 23.16 60.17 27.7C60.17 32.24 59.49 36.23 58.14 39.69C56.78 43.15 54.81 46.05 52.21 48.39C49.62 50.73 46.45 52.48 42.71 53.65C38.97 54.82 34.74 55.4 30.02 55.4ZM30.02 48.18C34.97 48.18 39.12 47.44 42.47 45.97C45.81 44.5 48.34 42.25 50.04 39.24C51.75 36.22 52.6 32.38 52.6 27.7C52.6 23.02 51.75 19.25 50.04 16.23C48.33 13.21 45.81 10.96 42.47 9.46C39.13 7.96 34.98 7.22 30.02 7.22C25.06 7.22 20.91 7.97 17.57 9.46C14.23 10.96 11.73 13.2 10.07 16.19C8.41 19.18 7.58 23.02 7.58 27.69C7.58 32.36 8.41 36.21 10.07 39.23C11.73 42.25 14.23 44.49 17.57 45.96C20.91 47.43 25.06 48.17 30.02 48.17V48.18ZM24.97 41.3C23.57 41.3 22.18 41.07 20.8 40.6C19.42 40.13 18.29 39.36 17.4 38.29C16.51 37.21 16.07 35.81 16.07 34.08C16.07 32.35 16.46 30.96 17.23 29.91C18 28.86 18.99 28.04 20.21 27.46C21.43 26.88 22.76 26.43 24.21 26.13C25.66 25.83 27.06 25.58 28.42 25.39C30.2 25.11 31.58 24.85 32.56 24.62C33.54 24.39 34.22 24.08 34.59 23.71C34.96 23.34 35.15 22.85 35.15 22.24C35.15 21.59 34.99 21 34.66 20.49C34.33 19.98 33.82 19.57 33.12 19.26C32.42 18.96 31.51 18.8 30.38 18.8C29.54 18.8 28.67 18.93 27.79 19.19C26.9 19.45 26.12 19.9 25.44 20.56C24.76 21.22 24.33 22.2 24.14 23.51L17.06 21.62C17.29 20.12 17.82 18.8 18.64 17.66C19.46 16.51 20.47 15.58 21.69 14.85C22.9 14.13 24.28 13.58 25.83 13.2C27.37 12.83 28.99 12.64 30.67 12.64C33.1 12.64 35.1 12.97 36.67 13.62C38.24 14.28 39.48 15.17 40.39 16.32C41.3 17.47 41.96 18.77 42.35 20.25C42.75 21.72 42.95 23.25 42.95 24.84V30.8C43 31.6 43.02 32.38 43.02 33.15C43.02 33.92 43.03 34.69 43.06 35.46C43.08 36.23 43.11 37.04 43.13 37.88C43.15 38.72 43.17 39.63 43.17 40.62H37.07C36.98 39.45 36.87 38.31 36.75 37.18C36.63 36.06 36.55 34.98 36.5 33.95H35.45C35.03 35.59 34.3 36.95 33.28 38.05C32.25 39.15 31.01 39.97 29.56 40.5C28.11 41.04 26.59 41.31 25 41.31L24.97 41.3ZM27.64 36.4C28.29 36.4 29 36.29 29.74 36.08C30.49 35.87 31.2 35.55 31.88 35.13C32.56 34.71 33.18 34.16 33.74 33.48C34.3 32.8 34.79 32 35.21 31.06L35.07 26.01L36.26 26.43C35.7 27.13 34.92 27.63 33.91 27.94C32.9 28.24 31.81 28.5 30.61 28.71C29.42 28.92 28.3 29.16 27.24 29.41C26.19 29.67 25.32 30.08 24.65 30.64C23.97 31.2 23.63 32.02 23.63 33.09C23.63 34.16 24 34.98 24.75 35.54C25.5 36.1 26.46 36.38 27.63 36.38L27.64 36.4Z" fill="black"/>
</svg>
