<svg width="56" height="56" viewBox="0 0 56 56" fill="none" xmlns="http://www.w3.org/2000/svg">
<path d="M51.8 37.2C49.21 35.17 45.17 33.65 39.68 32.64V31.04L54 33.2V25.68H35.6V33.92C38.05 34.45 40.12 35.2 41.8 36.16C43.48 37.12 44.77 38.19 45.68 39.36C46.59 40.53 47.04 41.71 47.04 42.88C47.04 44.05 46.65 44.91 45.88 45.6C45.11 46.29 44.05 46.64 42.72 46.64C41.01 46.64 39.29 46.08 37.56 44.96C35.83 43.84 34.16 42.35 32.56 40.48C30.96 38.61 29.47 36.55 28.08 34.28C26.69 32.01 25.48 29.68 24.44 27.28C23.4 24.88 22.59 22.59 22 20.4C21.41 18.21 21.12 16.35 21.12 14.8C21.12 13.52 21.31 12.37 21.68 11.36C22.05 10.35 22.64 9.53 23.44 8.92C24.24 8.31 25.31 8 26.64 8C28.51 8 29.87 8.61 30.72 9.84C31.57 11.07 32 12.53 32 14.24C32 15.95 31.61 17.6 30.84 19.2C30.07 20.8 28.88 22.4 27.28 24L27.92 25.28C31.28 24.37 33.92 23.25 35.84 21.92C37.76 20.59 39.15 19.09 40 17.44C40.85 15.79 41.28 14.08 41.28 12.32C41.28 10.08 40.71 8.03 39.56 6.16C38.41 4.29 36.75 2.8 34.56 1.68C32.37 0.56 29.65 0 26.4 0C22.88 0 20 0.68 17.76 2.04C15.52 3.4 13.85 5.19 12.76 7.4C11.67 9.61 11.12 12.05 11.12 14.72C11.12 17.01 11.51 19.6 12.28 22.48C12.83 24.53 13.56 26.61 14.44 28.73C13.29 28.96 12.12 29.27 10.92 29.68C9.03 30.32 7.25 31.19 5.6 32.28C3.95 33.37 2.6 34.77 1.56 36.48C0.52 38.19 0 40.27 0 42.72C0 45.17 0.6 47.48 1.8 49.32C3 51.16 4.65 52.59 6.76 53.6C8.87 54.61 11.28 55.12 14 55.12C16.08 55.12 17.91 54.83 19.48 54.24C21.05 53.65 22.43 52.8 23.6 51.68C24.77 50.56 25.76 49.23 26.56 47.68H27.04C27.04 47.68 27.07 47.71 27.08 47.72C29.45 49.99 31.96 51.77 34.6 53.08C37.24 54.39 39.97 55.04 42.8 55.04C43.92 55.04 45.21 54.88 46.68 54.56C48.15 54.24 49.56 53.72 50.92 53C52.28 52.28 53.41 51.25 54.32 49.92C55.23 48.59 55.68 46.93 55.68 44.96C55.68 41.81 54.39 39.23 51.8 37.2ZM23 47.16C21.69 47.77 20.21 48.08 18.56 48.08C16.75 48.08 15.16 47.75 13.8 47.08C12.44 46.41 11.39 45.47 10.64 44.24C9.89 43.01 9.52 41.63 9.52 40.08C9.52 38.21 10.12 36.43 11.32 34.72C12.29 33.33 13.69 32.1 15.45 30.99C15.5 31.1 15.55 31.21 15.6 31.32C17.04 34.33 18.72 37.25 20.64 40.08C22.05 42.15 23.58 44.07 25.23 45.84C24.51 46.36 23.77 46.8 23 47.16Z" fill="black"/>
</svg>
