<svg width="27" height="11" viewBox="0 0 27 11" fill="none" xmlns="http://www.w3.org/2000/svg">
<path d="M21.3323 9.5122C20.1011 9.5062 18.8733 9.38368 17.6663 9.14634C16.3384 8.9212 15.0106 8.69606 13.7405 8.33021L10.2187 7.51407C9.39566 7.3135 8.55462 7.19098 7.70735 7.14822C6.95682 7.14822 6.52383 7.42964 6.37949 7.93621C6.22766 8.64147 6.22766 9.36978 6.37949 10.075H1.01032C0.242685 8.54609 -0.105407 6.84928 -5.83621e-06 5.15009C0.112054 3.86559 0.733381 2.67429 1.73198 1.82927C2.8737 0.942249 4.31771 0.509855 5.7733 0.619137C6.96466 0.630596 8.15271 0.743596 9.32388 0.956848C10.594 1.18199 11.8641 1.46342 13.1343 1.74484L16.5694 2.53283C17.3824 2.72993 18.2145 2.84312 19.0519 2.87054C19.7736 2.87054 20.2354 2.61726 20.4086 2.11069C20.5728 1.41623 20.5728 0.694465 20.4086 0H25.5469C26.1886 1.4666 26.5035 3.04937 26.4706 4.64353C26.437 5.93651 25.9477 7.17878 25.085 8.16135C24.5929 8.63228 24.0041 8.99616 23.3572 9.22901C22.7104 9.46186 22.0202 9.55837 21.3323 9.5122Z" fill="black"/>
</svg>
